<svg xmlns="http://www.w3.org/2000/svg" version="1.1" width="66px" height="66px" role="img"><defs><clipPath id="clip_63ebab2f9b786b0037216f11_viewer-0fb0b372-e714-41ef-bf8e-b51da6a4b3b3"><path d="M 48 0
        L 18 0
        A 18 18 0 0 0 0 18
        L 0 48
        A 18 18 0 0 0 18 66
        L 48 66
        A 18 18 0 0 0 66 48
        L 66 18
        A 18 18 0 0 0 48 0
        Z"></path></clipPath></defs><path mask="url(#mask_63ebab2f9b786b0037216f11_viewer-0fb0b372-e714-41ef-bf8e-b51da6a4b3b3)" d="M 48 0
        L 18 0
        A 18 18 0 0 0 0 18
        L 0 48
        A 18 18 0 0 0 18 66
        L 48 66
        A 18 18 0 0 0 66 48
        L 66 18
        A 18 18 0 0 0 48 0
        Z" style="fill:rgb(53,53,53); stroke:none; stroke-width:0; pointer-events: visiblePainted;"></path></svg>
