<svg xmlns="http://www.w3.org/2000/svg" viewBox="0.9056968688964844 0.01768779754638672 244.18792724609375 244.2803192138672" preserveAspectRatio="xMidYMid meet" style="width: 100%; height: 100%;" fill="rgb(255,230,162)" fill-opacity="1"><path fill-rule="evenodd" d="M117.858 210.495L56.34 243.02c-5.37 2.84-12.026.788-14.865-4.583a11 11 0 01-1.12-6.99l11.837-69.404a11 11 0 00-2.76-9.31L3.823 103.326c-4.12-4.464-3.843-11.423.621-15.544a11 11 0 015.756-2.784l63.95-10.035a11 11 0 008.17-6.021l30.804-62.768c2.677-5.454 9.267-7.705 14.721-5.029a11 11 0 015.029 5.029l30.804 62.768a11 11 0 008.17 6.02l63.95 10.036c6.001.942 10.103 6.57 9.161 12.572a11 11 0 01-2.784 5.756l-45.609 49.406a11 11 0 00-2.76 9.31l11.836 69.404c1.022 5.988-3.005 11.67-8.994 12.692a11 11 0 01-6.99-1.119l-61.518-32.524a11 11 0 00-10.282 0z"/></svg>